<svg width="80" height="80" viewBox="0 0 80 80" fill="none" xmlns="http://www.w3.org/2000/svg">
<g filter="url(#filter0_dddd_1_172)">
<path d="M38.5 46.5834C38.7778 47.2501 39.2778 47.5834 40 47.5834C40.7222 47.5834 41.2222 47.2501 41.5 46.5834L45.1667 38.5001L53.25 34.8334C53.9167 34.5556 54.25 34.0556 54.25 33.3334C54.25 32.6112 53.9167 32.1112 53.25 31.8334L45.1667 28.1667L41.5 20.0834C41.2222 19.4167 40.7222 19.0834 40 19.0834C39.2778 19.0834 38.7778 19.4167 38.5 20.0834L34.8333 28.1667L26.75 31.8334C26.0833 32.1112 25.75 32.6112 25.75 33.3334C25.75 34.0556 26.0833 34.5556 26.75 34.8334L34.8333 38.5001L38.5 46.5834ZM6.66667 65.2501V13.3334C6.66667 11.5001 7.32001 9.93008 8.62667 8.62341C9.93112 7.31897 11.5 6.66675 13.3333 6.66675H66.6667C68.5 6.66675 70.07 7.31897 71.3767 8.62341C72.6811 9.93008 73.3333 11.5001 73.3333 13.3334V53.3334C73.3333 55.1668 72.6811 56.7368 71.3767 58.0434C70.07 59.3479 68.5 60.0001 66.6667 60.0001H20L12.3333 67.6668C11.2778 68.7223 10.0689 68.9579 8.70667 68.3734C7.34667 67.7912 6.66667 66.7501 6.66667 65.2501Z" fill="#68162C"/>
</g>
<defs>
<filter id="filter0_dddd_1_172" x="-7.33333" y="-7.33325" width="92.6667" height="88.019" filterUnits="userSpaceOnUse" color-interpolation-filters="sRGB">
<feFlood flood-opacity="0" result="BackgroundImageFix"/>
<feColorMatrix in="SourceAlpha" type="matrix" values="0 0 0 0 0 0 0 0 0 0 0 0 0 0 0 0 0 0 127 0" result="hardAlpha"/>
<feOffset dx="5" dy="5"/>
<feGaussianBlur stdDeviation="3.5"/>
<feComposite in2="hardAlpha" operator="out"/>
<feColorMatrix type="matrix" values="0 0 0 0 0 0 0 0 0 0 0 0 0 0 0 0 0 0 0.25 0"/>
<feBlend mode="normal" in2="BackgroundImageFix" result="effect1_dropShadow_1_172"/>
<feColorMatrix in="SourceAlpha" type="matrix" values="0 0 0 0 0 0 0 0 0 0 0 0 0 0 0 0 0 0 127 0" result="hardAlpha"/>
<feOffset dx="1" dy="1"/>
<feGaussianBlur stdDeviation="1"/>
<feComposite in2="hardAlpha" operator="out"/>
<feColorMatrix type="matrix" values="0 0 0 0 0 0 0 0 0 0 0 0 0 0 0 0 0 0 0.25 0"/>
<feBlend mode="normal" in2="effect1_dropShadow_1_172" result="effect2_dropShadow_1_172"/>
<feColorMatrix in="SourceAlpha" type="matrix" values="0 0 0 0 0 0 0 0 0 0 0 0 0 0 0 0 0 0 127 0" result="hardAlpha"/>
<feOffset dx="-2" dy="-2"/>
<feGaussianBlur stdDeviation="1"/>
<feComposite in2="hardAlpha" operator="out"/>
<feColorMatrix type="matrix" values="0 0 0 0 1 0 0 0 0 1 0 0 0 0 1 0 0 0 0.6 0"/>
<feBlend mode="normal" in2="effect2_dropShadow_1_172" result="effect3_dropShadow_1_172"/>
<feColorMatrix in="SourceAlpha" type="matrix" values="0 0 0 0 0 0 0 0 0 0 0 0 0 0 0 0 0 0 127 0" result="hardAlpha"/>
<feOffset dx="-6" dy="-6"/>
<feGaussianBlur stdDeviation="4"/>
<feComposite in2="hardAlpha" operator="out"/>
<feColorMatrix type="matrix" values="0 0 0 0 1 0 0 0 0 1 0 0 0 0 1 0 0 0 0.4 0"/>
<feBlend mode="normal" in2="effect3_dropShadow_1_172" result="effect4_dropShadow_1_172"/>
<feBlend mode="normal" in="SourceGraphic" in2="effect4_dropShadow_1_172" result="shape"/>
</filter>
</defs>
</svg>
