<svg width="72" height="154" viewBox="0 0 72 154" fill="none" xmlns="http://www.w3.org/2000/svg">
<path d="M68 7.78109C65.9118 7.78109 64.2189 6.08824 64.2189 4.00001C64.2189 1.91177 65.9118 0.218925 68 0.218925C70.0882 0.218925 71.7811 1.91177 71.7811 4.00001C71.7811 6.08824 70.0882 7.78109 68 7.78109ZM4 153.781C1.91177 153.781 0.218922 152.088 0.218922 150C0.218922 147.912 1.91177 146.219 4 146.219C6.08824 146.219 7.78108 147.912 7.78108 150C7.78108 152.088 6.08824 153.781 4 153.781ZM68.709 4.00001V72.5838H67.291V4.00001H68.709ZM56.6568 84.636H15.3432V83.2181H56.6568V84.636ZM4.70895 95.2702V150H3.29105V95.2702H4.70895ZM15.3432 84.636C9.47009 84.636 4.70895 89.3971 4.70895 95.2702H3.29105C3.29105 88.614 8.687 83.2181 15.3432 83.2181V84.636ZM68.709 72.5838C68.709 79.24 63.313 84.636 56.6568 84.636V83.2181C62.5299 83.2181 67.291 78.4569 67.291 72.5838H68.709Z" fill="#69172D"/>
</svg>
